<?xml version="1.0" encoding="utf-8"?>
<!-- Generator: Adobe Illustrator 27.0.0, SVG Export Plug-In . SVG Version: 6.00 Build 0)  -->
<svg version="1.1" id="Layer_1" xmlns="http://www.w3.org/2000/svg" xmlns:xlink="http://www.w3.org/1999/xlink" x="0px" y="0px"
	 viewBox="0 0 512 512" style="enable-background:new 0 0 512 512;" xml:space="preserve">
<style type="text/css">
	.st0{fill:#FFFFFF;}
	.st1{fill:#C4261B;}
	.st2{fill:#005192;}
</style>
<g id="XMLID_1_">
	<path id="XMLID_3_" class="st0" d="M375.08,229.79c1.12,0.42,1.82,1.26,2.67,2.1c10.94,11.5,22.02,23,32.96,34.51
		c0-11.5,0-23.14,0-34.65c2.95,0,5.89,0,8.84,0c0.28,0.98,0.42,2.1,0.42,3.23c0,17.53,0,35.21,0,52.74
		c-0.28,0.14-0.7,0.28-0.84,0.42c-11.78-11.92-23.14-24.27-34.93-36.33c-0.14,11.5,0.14,23-0.14,34.65c-2.95-0.14-6.03,0-8.98,0
		C374.94,267.38,374.94,248.59,375.08,229.79L375.08,229.79z"/>
	<path id="XMLID_4_" class="st0" d="M140.14,231.19c6.87-2.52,14.31-0.7,21.04,1.4c0.14,4.35,0,8.56,0,12.9
		c-4.07-2.52-8.56-5.05-13.61-5.19c-2.52-0.14-5.61,1.4-5.61,4.21c-0.14,2.1,1.4,3.65,3.09,4.63c6.03,3.79,12.9,6.45,17.53,11.92
		c5.61,7.71,2.67,19.92-5.89,24.27c-7.85,4.21-17.11,2.52-25.25,0c-0.42-4.77-0.7-9.68-0.98-14.45c4.63,2.95,9.82,5.61,15.43,5.47
		c2.38-0.14,5.19-0.84,6.45-3.23c1.26-2.1,0.28-4.91-1.54-6.31c-5.33-4.21-12.06-6.31-16.69-11.36c-2.95-3.09-4.49-7.57-4.07-11.92
		C130.46,237.93,134.81,233.02,140.14,231.19z"/>
	<path id="XMLID_7_" class="st0" d="M336.65,236.1c1.12-2.1,1.82-4.49,3.37-6.45c8.7,18.8,17.25,37.73,25.81,56.53
		c-3.23,0-6.59,0-9.82,0c-1.54-3.23-2.95-6.45-4.35-9.68c-8.14,0-16.41,0-24.55,0c-1.4,3.23-2.81,6.45-4.49,9.68
		c-3.23,0-6.31,0-9.54,0C320.94,269.63,328.65,252.79,336.65,236.1 M338.75,249.71c-2.81,6.31-5.47,12.62-8.42,18.94
		c5.89,0.28,11.78,0,17.67,0.14c-2.81-6.59-5.75-13.33-8.56-19.92C339.31,249.01,339.03,249.57,338.75,249.71z"/>
	<path id="XMLID_8_" class="st0" d="M26.94,231.75c5.05,0,10.24,0,15.29,0c3.93,5.61,7.57,11.64,11.5,17.39
		c4.07-5.75,8.28-11.64,12.48-17.25c4.49,0,8.98,0,13.47,0c-6.73,9.54-14.17,18.66-20.76,28.33c-0.14,8.7,0,17.39,0,26.09
		c-4.21,0-8.56,0-12.76,0c0-8.7,0.14-17.25-0.14-25.95C39.71,250.69,33.11,241.43,26.94,231.75z"/>
	<path id="XMLID_9_" class="st0" d="M85.15,286.18c0-18.09,0-36.33,0-54.42c11.08,0,22.02,0,33.1,0c0,3.65,0,7.43,0,11.08
		c-6.87,0.28-13.89-0.28-20.76,0.28c0,3.23,0,6.59,0,9.82c5.89,0,11.78-0.14,17.81,0c-0.14,3.65,0,7.29,0,11.08
		c-5.89,0-11.78,0-17.81,0c0,3.65,0,7.15,0,10.8c7.01,0,14.03,0,20.9,0c0,3.79,0,7.71,0,11.5
		C107.46,286.18,96.23,286.18,85.15,286.18z"/>
	<path id="XMLID_13_" class="st0" d="M271.56,231.75c6.87,0.14,13.75-0.28,20.62,0.42c4.49,0.56,9.26,2.24,11.64,6.31
		c2.52,4.49,2.52,10.66-0.84,14.73c-1.54,1.82-3.65,2.81-5.75,3.93c3.93,1.12,7.43,3.93,8.7,8c1.54,4.91,1.12,10.66-2.1,14.87
		c-3.51,4.49-9.54,5.75-14.87,6.17c-5.75,0.14-11.64,0-17.39,0.14C271.56,268.08,271.56,249.99,271.56,231.75 M280.54,239.05
		c0,5.05,0,10.24,0,15.43c4.07-0.14,8.56,0.56,12.2-1.68c4.35-2.38,4.77-9.96,0.28-12.34C289.24,238.49,284.75,239.19,280.54,239.05
		 M280.54,261.77c0,5.61,0,11.36,0,16.97c4.07-0.14,8.56,0.56,12.48-1.12c5.19-2.38,5.89-10.66,1.26-13.89
		C290.36,260.79,285.17,261.91,280.54,261.77z"/>
	<path id="XMLID_14_" class="st0" d="M437.08,286.32c0-18.09-0.14-36.33,0.14-54.42c3.09,0,6.03,0,9.12,0c0.14,8.14,0,16.27,0,24.41
		c7.71-8.14,15.29-16.27,23-24.41c3.65,0,7.29,0,10.8,0c-8.14,8.84-16.41,17.39-24.55,26.23c9.12,9.4,18.09,18.94,27.21,28.19
		c-4.07,0.14-8.14,0-12.06,0c-8.14-8.56-16.13-16.97-24.27-25.53c0,8.42,0,16.97,0,25.39C443.25,286.32,440.16,286.18,437.08,286.32
		L437.08,286.32z"/>
	<path id="XMLID_15_" class="st1" d="M273.53,174.39c2.67-3.51,5.05-7.15,7.85-10.52c-27.77,48.95-55.26,98.04-82.9,147.14
		c-6.87,12.34-13.89,24.69-20.76,37.03c-0.56-0.28-1.12-0.7-1.54-1.26c-9.68-9.96-19.5-19.78-29.32-29.74c6.87-0.14,13.89,0,20.76,0
		C202.98,269.63,238.18,222.08,273.53,174.39z"/>
	<path id="XMLID_20_" class="st2" d="M0.01,204.54c82.76-0.14,165.37,0,248.13,0c-27.49,36.33-54.84,72.8-82.48,108.99
		c-55.26,0-110.39,0-165.65,0C0.01,277.2,0.01,240.87,0.01,204.54 M140.14,231.19c-5.33,1.82-9.68,6.73-9.96,12.48
		c-0.42,4.35,1.12,8.84,4.07,11.92c4.63,5.05,11.5,7.15,16.69,11.36c1.82,1.4,2.81,4.21,1.54,6.31c-1.12,2.38-4.07,3.09-6.45,3.23
		c-5.61,0.14-10.8-2.67-15.43-5.47c0.14,4.77,0.56,9.68,0.98,14.45c8,2.52,17.39,4.21,25.25,0c8.42-4.35,11.5-16.55,5.89-24.27
		c-4.63-5.61-11.64-8.28-17.53-11.92c-1.54-0.98-3.23-2.67-3.09-4.63c0-2.81,3.09-4.35,5.61-4.21c4.91,0.14,9.4,2.67,13.61,5.19
		c0-4.35,0-8.56,0-12.9C154.58,230.49,147.15,228.67,140.14,231.19 M26.94,231.75c6.17,9.68,12.76,18.94,19.08,28.47
		c0.28,8.56,0,17.25,0.14,25.95c4.21,0,8.56,0,12.76,0c0-8.7-0.14-17.39,0-26.09c6.59-9.68,13.89-18.8,20.76-28.33
		c-4.49,0-8.98,0-13.47,0c-4.21,5.75-8.42,11.5-12.48,17.25c-3.93-5.75-7.57-11.64-11.5-17.39
		C37.18,231.89,31.99,231.75,26.94,231.75 M85.15,286.18c11.08,0,22.3,0,33.38,0c0-3.79,0-7.71,0-11.5c-7.01-0.14-14.03,0-20.9,0
		c0-3.65,0-7.15,0-10.8c5.89,0,11.78,0,17.81,0c0-3.65,0-7.43,0-11.08c-5.89-0.14-11.78,0-17.81,0c0-3.23,0-6.59,0-9.82
		c6.87-0.42,13.89,0,20.76-0.28c-0.14-3.65,0-7.43,0-11.08c-11.08,0-22.02,0-33.1,0C85.15,249.99,85.15,268.08,85.15,286.18z"/>
	<path id="XMLID_26_" class="st2" d="M243.65,236.1c6.03-10.52,11.5-21.32,17.67-31.7c83.46,0,167.05,0.14,250.51,0
		c0.28,36.33,0.14,72.8,0.14,109.13c-103.66,0-207.31,0-310.97,0C215.18,287.58,229.49,261.91,243.65,236.1 M375.08,229.79
		c-0.14,18.8,0,37.59,0,56.39c2.95,0,6.03-0.14,8.98,0c0.28-11.5,0-23,0.14-34.65c11.78,12.06,23.14,24.41,34.93,36.33
		c0.28-0.14,0.7-0.28,0.84-0.42c0-17.53,0-35.21,0-52.74c0-1.12-0.14-2.1-0.42-3.23c-2.95,0.14-5.89,0-8.84,0
		c0,11.5,0,23.14,0,34.65c-10.94-11.5-22.02-23-32.96-34.51C376.9,231.05,376.2,230.21,375.08,229.79 M336.65,236.1
		c-7.85,16.69-15.71,33.52-23.7,50.07c3.23,0,6.31,0,9.54,0c1.54-3.23,2.95-6.45,4.49-9.68c8.14,0,16.41,0,24.55,0
		c1.4,3.23,2.81,6.45,4.35,9.68c3.23-0.14,6.59,0,9.82,0c-8.56-18.8-16.97-37.73-25.81-56.53C338.47,231.61,337.63,234,336.65,236.1
		 M271.56,231.75c0,18.09,0,36.33,0,54.42c5.75,0,11.64,0.14,17.39-0.14c5.33-0.28,11.36-1.68,14.87-6.17
		c3.23-4.21,3.65-9.96,2.1-14.87c-1.26-3.93-4.77-6.87-8.7-8c2.1-0.98,4.21-1.96,5.75-3.93c3.37-4.07,3.37-10.24,0.84-14.73
		c-2.38-4.07-7.15-5.89-11.64-6.31C285.31,231.47,278.44,231.89,271.56,231.75 M437.08,286.32c3.09,0,6.17,0,9.26,0
		c0-8.42,0-16.97,0-25.39c8.14,8.42,16.27,16.97,24.27,25.53c4.07,0,8.14,0,12.06,0c-9.12-9.4-18.09-18.8-27.21-28.19
		c8.14-8.7,16.41-17.39,24.55-26.23c-3.65,0-7.29,0-10.8,0c-7.71,8.14-15.29,16.27-23,24.41c0-8.14,0.14-16.27,0-24.41
		c-3.09,0-6.03,0-9.12,0C436.94,249.99,437.08,268.08,437.08,286.32L437.08,286.32z"/>
	<path id="XMLID_27_" class="st2" d="M280.54,239.05c4.21,0.14,8.56-0.56,12.48,1.4c4.63,2.38,4.07,9.96-0.28,12.34
		c-3.65,2.24-8.14,1.54-12.2,1.68C280.54,249.29,280.68,244.24,280.54,239.05z"/>
	<path id="XMLID_28_" class="st2" d="M338.75,249.71c0.14-0.28,0.56-0.7,0.7-0.98c2.81,6.59,5.75,13.33,8.56,19.92
		c-5.89,0-11.78,0.14-17.67-0.14C333.28,262.47,335.95,256.02,338.75,249.71z"/>
	<path id="XMLID_29_" class="st2" d="M280.54,261.77c4.63,0.28,9.68-0.98,13.75,1.82c4.63,3.23,3.93,11.64-1.26,13.89
		c-3.93,1.82-8.28,0.98-12.48,1.12C280.54,272.99,280.68,267.38,280.54,261.77L280.54,261.77z"/>
</g>
</svg>
