<?xml version="1.0" encoding="UTF-8"?>
<svg width="131px" height="49px" viewBox="0 0 131 49" version="1.1" xmlns="http://www.w3.org/2000/svg" xmlns:xlink="http://www.w3.org/1999/xlink">
    <!-- Generator: Sketch 64 (93537) - https://sketch.com -->
    <title>Group</title>
    <desc>Created with Sketch.</desc>
    <g id="Page-1" stroke="none" stroke-width="1" fill="none" fill-rule="evenodd">
        <g id="logo-PNG" fill-rule="nonzero">
            <g id="Group">
                <path d="M59.2,33.2 C57.7,33.2 56.2,33 54.9,32.5 C53.6,32 52.4,31.3 51.4,30.3 C50.4,29.4 49.7,28.2 49.1,26.9 C48.5,25.5 48.3,24 48.3,22.4 C48.3,20.8 48.6,19.3 49.1,17.9 C49.7,16.5 50.5,15.3 51.5,14.3 C52.5,13.3 53.7,12.5 55.1,12 C56.5,11.5 58,11.2 59.6,11.2 C60.8,11.2 61.8,11.3 62.8,11.6 C63.8,11.9 64.6,12.2 65.2,12.5 L66.1,11.7 L67.4,11.7 L67.5,19.3 L66.2,19.3 C65.5,17 64.6,15.3 63.6,14.2 C62.6,13.1 61.3,12.6 59.8,12.6 C58,12.6 56.6,13.4 55.6,15 C54.6,16.6 54.2,18.9 54.2,21.8 C54.2,23.5 54.4,24.9 54.7,26 C55,27.2 55.5,28.1 56,28.8 C56.6,29.5 57.2,30.1 58,30.4 C58.8,30.7 59.6,30.9 60.6,30.9 C62,30.9 63.2,30.5 64.3,29.8 C65.4,29.1 66.4,27.9 67.2,26.4 L68.5,27.2 C68.1,28.1 67.6,28.8 67.1,29.5 C66.6,30.2 65.9,30.8 65.2,31.2 C64.4,31.7 63.6,32.2 62.6,32.5 C61.6,33.1 60.5,33.2 59.2,33.2" id="Path" fill="#000000"></path>
                <path d="M87.5,32.7 L78.7,32.7 L78.7,31.6 C78.9,31.6 79.1,31.6 79.4,31.5 C79.7,31.5 79.9,31.4 80,31.4 C80.2,31.3 80.3,31.1 80.4,30.9 C80.5,30.7 80.5,30.4 80.5,30 L80.5,23.1 C80.5,22.1 80.3,21.3 79.9,20.8 C79.5,20.3 79,20.1 78.3,20.1 C77.9,20.1 77.5,20.2 77.2,20.3 C76.9,20.4 76.5,20.6 76.2,20.8 C75.9,21 75.7,21.2 75.5,21.4 C75.3,21.6 75.2,21.8 75.1,21.9 L75.1,29.8 C75.1,30.2 75.1,30.5 75.2,30.7 C75.3,30.9 75.5,31.1 75.7,31.2 C75.8,31.3 76,31.4 76.3,31.4 C76.5,31.5 76.8,31.5 77,31.5 L77,32.6 L68.1,32.6 L68.1,31.5 C68.4,31.5 68.6,31.5 68.8,31.4 C69,31.4 69.3,31.3 69.4,31.3 C69.7,31.2 69.9,31 70,30.8 C70.1,30.6 70.2,30.3 70.2,29.9 L70.2,13.6 C70.2,13.3 70.1,13 70,12.6 C69.9,12.2 69.6,12 69.4,11.8 C69.2,11.7 68.9,11.6 68.5,11.5 C68.1,11.4 67.8,11.4 67.5,11.4 L67.5,10.3 L74.8,9.9 L75,10.1 L75,20.2 L75.1,20.2 C75.5,19.9 75.8,19.6 76.1,19.3 C76.4,19 76.8,18.8 77.2,18.5 C77.6,18.3 78,18.1 78.6,17.9 C79.2,17.7 79.8,17.7 80.5,17.7 C82.1,17.7 83.3,18.2 84.1,19.1 C84.9,20 85.3,21.2 85.3,22.7 L85.3,29.9 C85.3,30.3 85.4,30.6 85.5,30.8 C85.6,31 85.8,31.2 86.1,31.3 C86.3,31.4 86.5,31.4 86.7,31.5 C86.9,31.6 87.2,31.6 87.5,31.6 L87.5,32.7 L87.5,32.7 Z" id="Path" fill="#000000"></path>
                <path d="M98.3,30 C98.5,29.5 98.7,28.8 98.8,28 C98.9,27.2 99,26.3 99,25.3 C99,24.6 99,23.8 98.9,22.9 C98.8,22 98.7,21.3 98.5,20.8 C98.3,20.2 97.9,19.7 97.5,19.3 C97.1,18.9 96.6,18.8 95.9,18.8 C95.2,18.8 94.6,19 94.2,19.4 C93.8,19.8 93.5,20.3 93.2,20.9 C93,21.5 92.9,22.1 92.8,22.9 C92.7,23.6 92.7,24.4 92.7,25.2 C92.7,26.3 92.7,27.2 92.8,27.9 C92.9,28.6 93,29.3 93.3,30 C93.5,30.6 93.8,31.1 94.3,31.4 C94.7,31.8 95.3,31.9 95.9,31.9 C96.5,31.9 97,31.7 97.4,31.4 C97.7,31.1 98.1,30.6 98.3,30 M102.1,19.8 C102.8,20.5 103.4,21.3 103.8,22.2 C104.2,23.1 104.4,24.2 104.4,25.3 C104.4,26.4 104.2,27.4 103.8,28.4 C103.4,29.4 102.9,30.2 102.2,30.9 C101.4,31.6 100.5,32.2 99.4,32.6 C98.3,33 97.1,33.2 95.7,33.2 C94.5,33.2 93.4,33 92.4,32.7 C91.4,32.4 90.5,31.8 89.7,31.2 C89,30.5 88.4,29.7 87.9,28.8 C87.5,27.8 87.3,26.7 87.3,25.6 C87.3,24.4 87.5,23.4 87.9,22.5 C88.3,21.6 88.8,20.8 89.6,20 C90.3,19.3 91.2,18.8 92.3,18.4 C93.4,18 94.6,17.8 95.9,17.8 C97.3,17.8 98.5,18 99.5,18.4 C100.4,18.6 101.3,19.1 102.1,19.8 Z" id="Shape" fill="#000000"></path>
                <path d="M113.4,32.7 L104.2,32.7 L104.2,31.6 C104.5,31.6 104.7,31.6 104.9,31.5 C105.1,31.5 105.4,31.4 105.5,31.4 C105.8,31.3 106,31.1 106.1,30.9 C106.2,30.7 106.3,30.4 106.3,30 L106.3,13.7 C106.3,13.3 106.2,13 106.1,12.7 C106,12.4 105.8,12.1 105.5,12 C105.3,11.9 105,11.8 104.6,11.6 C104.2,11.5 103.9,11.4 103.6,11.4 L103.6,10.3 L111,9.9 L111.2,10.1 L111.2,29.8 C111.2,30.2 111.3,30.5 111.4,30.7 C111.5,30.9 111.7,31.1 112,31.2 C112.2,31.3 112.4,31.4 112.6,31.4 C112.8,31.5 113.1,31.5 113.4,31.5 L113.4,32.7 L113.4,32.7 Z" id="Path" fill="#000000"></path>
                <path d="M122.5,24.7 C122,24.9 121.4,25.1 120.9,25.3 C120.4,25.5 119.9,25.8 119.6,26 C119.2,26.3 119,26.6 118.7,27.1 C118.5,27.5 118.4,28 118.4,28.6 C118.4,29.4 118.6,29.9 118.9,30.3 C119.3,30.6 119.7,30.8 120.2,30.8 C120.7,30.8 121.2,30.7 121.5,30.5 C121.9,30.3 122.2,30 122.4,29.7 L122.5,24.7 Z M129.8,32.4 C129.4,32.6 128.9,32.8 128.3,32.9 C127.7,33.1 127.1,33.1 126.4,33.1 C125.2,33.1 124.3,32.9 123.7,32.6 C123.1,32.2 122.7,31.7 122.5,31.1 L122.4,31.1 C122.1,31.4 121.7,31.7 121.4,32 C121.1,32.2 120.8,32.4 120.4,32.6 C119.9,32.8 119.5,33 119.1,33.1 C118.7,33.2 118.1,33.3 117.3,33.3 C116.2,33.3 115.2,33 114.4,32.3 C113.6,31.6 113.2,30.7 113.2,29.6 C113.2,29 113.3,28.4 113.5,28 C113.7,27.5 113.9,27.2 114.3,26.8 C114.6,26.5 114.9,26.2 115.3,26 C115.7,25.8 116.1,25.6 116.6,25.4 C117.5,25.1 118.5,24.7 119.8,24.4 C121,24 121.9,23.7 122.5,23.5 L122.5,22.1 C122.5,21.9 122.5,21.5 122.4,21.1 C122.4,20.7 122.3,20.4 122.2,20.1 C122.1,19.8 121.8,19.5 121.6,19.3 C121.3,19.1 120.9,19 120.4,19 C120,19 119.6,19.1 119.3,19.2 C119,19.3 118.8,19.4 118.6,19.6 C118.6,19.8 118.7,20.1 118.8,20.5 C118.9,20.9 119,21.3 119,21.7 C119,21.9 119,22.1 118.9,22.3 C118.8,22.5 118.7,22.7 118.5,22.9 C118.3,23.1 118,23.2 117.7,23.4 C117.4,23.5 117,23.6 116.4,23.6 C115.6,23.6 115,23.4 114.5,23 C114.1,22.6 113.9,22.1 113.9,21.4 C113.9,20.9 114.1,20.4 114.5,19.9 C114.9,19.5 115.5,19.1 116.1,18.8 C116.7,18.5 117.4,18.3 118.2,18.1 C119,17.9 119.7,17.9 120.4,17.9 C121.4,17.9 122.2,18 123,18.1 C123.8,18.2 124.5,18.4 125.1,18.8 C125.7,19.1 126.2,19.6 126.5,20.3 C126.9,20.9 127,21.8 127,22.8 C127,23.9 127,25.2 126.9,26.7 C126.9,28.2 126.8,29.2 126.8,29.7 C126.8,30.1 126.9,30.5 127,30.7 C127.1,31 127.3,31.1 127.6,31.3 C127.8,31.4 128,31.4 128.4,31.4 C128.8,31.4 129.1,31.4 129.4,31.4 L129.4,32.4 L129.8,32.4 Z" id="Shape" fill="#000000"></path>
                <path d="M17.4,23 C15.5,22.2 14.1,21.2 14.4,18.5 C14.8,14.9 20.5,10.8 22.3,8.7 C23.6,7.3 23.9,3.7 23.9,3.7 C23.9,3.7 25.8,7.6 23.6,10.9 C22.7,12.2 18.2,16.6 17.2,19.4 C16.8,20.5 16.6,21.8 17.4,23" id="Path" fill="#E7262B"></path>
                <path d="M14.1,19.6 C12.2,18.8 10.7,17.5 11,14.8 C11.5,11.2 17.2,7.2 19.1,5.2 C20.4,3.8 20.8,0.3 20.8,0.3 C20.8,0.3 22.6,4.3 20.4,7.5 C19.5,8.8 14.9,13.1 13.9,15.9 C13.5,16.9 13.2,18.2 14.1,19.6" id="Path" fill="#E7262B"></path>
                <path d="M26.6,20.1 C28.5,20.9 29.9,21.9 29.6,24.6 C29.2,28.2 23.5,32.3 21.7,34.4 C20.4,35.8 20.1,39.4 20.1,39.4 C20.1,39.4 18.2,35.5 20.4,32.2 C21.3,30.9 25.8,26.5 26.8,23.7 C27.2,22.6 27.4,21.3 26.6,20.1" id="Path" fill="#E7262B"></path>
                <path d="M29.9,23.5 C31.8,24.3 33.3,25.6 33,28.3 C32.5,31.9 26.8,35.9 24.9,37.9 C23.6,39.3 23.2,42.8 23.2,42.8 C23.2,42.8 21.4,38.8 23.6,35.6 C24.5,34.3 29.1,30 30.1,27.2 C30.5,26.2 30.8,24.9 29.9,23.5" id="Path" fill="#E7262B"></path>
                <path d="M23.5,26.2 C22.7,28.1 21.7,29.5 19,29.2 C15.4,28.8 11.3,23.1 9.2,21.3 C7.8,20 4.2,19.7 4.2,19.7 C4.2,19.7 8.1,17.8 11.4,20 C12.7,20.9 17.1,25.4 19.9,26.4 C20.9,26.7 22.3,26.9 23.5,26.2" id="Path" fill="#1D4481"></path>
                <path d="M20.1,29.4 C19.3,31.3 18,32.8 15.3,32.5 C11.7,32 7.7,26.3 5.7,24.4 C4.3,23.1 0.8,22.7 0.8,22.7 C0.8,22.7 4.8,20.9 8,23.1 C9.3,24 13.6,28.6 16.4,29.6 C17.3,30.1 18.7,30.3 20.1,29.4" id="Path" fill="#1D4481"></path>
                <path d="M20.5,16.9 C21.3,15 22.3,13.6 25,13.9 C28.6,14.3 32.7,20 34.8,21.8 C36.2,23.1 39.8,23.4 39.8,23.4 C39.8,23.4 35.9,25.3 32.6,23.1 C31.3,22.2 26.9,17.7 24.1,16.7 C23.1,16.4 21.7,16.2 20.5,16.9" id="Path" fill="#1D4481"></path>
                <path d="M23.9,13.7 C24.7,11.8 26,10.3 28.7,10.6 C32.3,11.1 36.3,16.8 38.3,18.7 C39.7,20 43.2,20.4 43.2,20.4 C43.2,20.4 39.2,22.2 36,20 C34.7,19.1 30.4,14.5 27.6,13.5 C26.7,13 25.3,12.8 23.9,13.7" id="Path" fill="#1D4481"></path>
                <path d="M129.1,41.2 C128.8,41.2 128.4,41.5 127.9,42 C127.5,42.5 127.2,43 127,43.6 L127.1,43.6 C127.8,43.5 128.3,43.2 128.8,42.9 C129.2,42.5 129.5,42.1 129.5,41.7 C129.5,41.5 129.5,41.4 129.4,41.3 C129.4,41.3 129.2,41.2 129.1,41.2 M127.5,46.2 C127,46.2 126.6,46.1 126.3,45.8 C126,45.5 125.9,45.1 125.9,44.6 C125.9,44.5 125.9,44.3 125.9,44.2 C125.9,44 126,43.9 126,43.8 C126.2,43.1 126.6,42.5 127.3,41.9 C128,41.3 128.7,41 129.3,41 C129.6,41 129.9,41.1 130,41.2 C130.2,41.3 130.2,41.5 130.2,41.8 C130.2,42.3 129.9,42.8 129.3,43.2 C128.7,43.6 127.9,43.9 127,44 L126.9,44 C126.9,44.1 126.8,44.2 126.8,44.3 C126.8,44.4 126.8,44.6 126.8,44.7 C126.8,45 126.9,45.3 127.1,45.5 C127.3,45.7 127.6,45.8 127.9,45.8 C128.2,45.8 128.4,45.7 128.7,45.6 C129,45.5 129.3,45.2 129.6,44.9 L129.8,45.1 C129.4,45.5 129,45.8 128.6,46 C128.3,46.1 127.9,46.2 127.5,46.2 Z M124.7,41.5 L124.7,41.5 L123.8,45.3 C123.6,46.4 123.3,47.2 122.9,47.7 C122.5,48.2 122,48.5 121.5,48.5 C121.3,48.5 121,48.4 120.9,48.3 C120.7,48.2 120.6,48 120.6,47.8 C120.6,47.7 120.6,47.5 120.7,47.5 C120.8,47.4 120.9,47.4 121,47.4 C121.2,47.4 121.3,47.5 121.4,47.6 C121.5,47.7 121.5,47.9 121.4,48 C121.3,48.1 121.3,48.2 121.4,48.2 C121.4,48.3 121.5,48.3 121.6,48.3 C121.9,48.3 122.1,48.2 122.2,47.9 C122.4,47.6 122.5,47.1 122.7,46.5 L123.7,41.6 L122.7,41.6 L122.8,41.2 L123.8,41.2 C124.1,40.3 124.4,39.6 124.7,39.1 C125.1,38.5 125.6,38.2 126.2,38.2 C126.5,38.2 126.7,38.3 126.9,38.4 C127.1,38.5 127.2,38.7 127.2,38.9 C127.2,39 127.2,39.2 127.1,39.3 C127,39.4 126.9,39.4 126.8,39.4 C126.6,39.4 126.5,39.3 126.4,39.2 C126.3,39 126.3,38.9 126.4,38.7 C126.4,38.6 126.5,38.6 126.4,38.5 C126.4,38.5 126.3,38.4 126.2,38.4 C125.9,38.4 125.6,38.6 125.4,39.1 C125.2,39.5 125,40.2 124.8,41.1 L126.1,41.1 L126,41.5 L124.7,41.5 Z M121.5,38.5 C121.7,38.5 121.8,38.6 121.9,38.7 C122,38.8 122.1,39 122.1,39.1 C122.1,39.3 122,39.4 121.9,39.5 C121.8,39.6 121.7,39.7 121.5,39.7 C121.3,39.7 121.2,39.6 121.1,39.5 C121,39.4 120.9,39.2 120.9,39.1 C120.9,38.9 121,38.8 121.1,38.7 C121.2,38.5 121.4,38.5 121.5,38.5 Z M119.7,45 L120.5,42.1 C120.6,41.8 120.6,41.6 120.5,41.5 C120.4,41.4 120.2,41.4 119.8,41.4 L119.9,41.2 L120.8,41 L121.7,40.8 L121.8,40.9 L120.7,45.1 C120.7,45.3 120.6,45.4 120.7,45.5 C120.7,45.6 120.8,45.6 120.9,45.6 C121,45.6 121.1,45.5 121.3,45.4 C121.4,45.3 121.6,45 121.9,44.7 L122.1,44.8 C121.8,45.3 121.5,45.6 121.2,45.8 C121,46 120.7,46.1 120.5,46.1 C120.2,46.1 120.1,46 120,45.8 C120,45.7 119.9,45.6 119.9,45.5 C119.6,45.4 119.6,45.2 119.7,45 Z M116.3,45 L117.8,39.1 C117.9,38.9 117.8,38.7 117.8,38.7 C117.7,38.6 117.4,38.6 117,38.6 L117.1,38.4 C117.5,38.4 117.8,38.3 118,38.3 C118.3,38.3 118.6,38.2 118.9,38.1 L119,38.2 L117.2,45.2 C117.2,45.4 117.1,45.5 117.2,45.6 C117.2,45.7 117.3,45.7 117.4,45.7 C117.5,45.7 117.6,45.6 117.8,45.5 C118,45.3 118.2,45.1 118.4,44.7 L118.6,44.8 C118.3,45.3 118,45.7 117.7,45.9 C117.4,46.1 117.2,46.2 116.9,46.2 C116.6,46.2 116.4,46.1 116.3,45.9 C116.2,45.7 116.2,45.4 116.3,45 Z M108.9,46.1 L110,42.2 C110.1,41.8 110.1,41.6 110,41.5 C109.9,41.4 109.7,41.4 109.2,41.5 L109.3,41.3 L110.2,41.1 L111,41 L111.1,41.1 L110.5,43.3 C110.5,43.3 110.5,43.3 110.5,43.3 C110.5,43.3 110.5,43.3 110.5,43.3 C110.6,43 110.8,42.7 110.9,42.5 C111.5,41.5 112,41 112.5,41 C112.7,41 112.9,41.1 113,41.2 C113.1,41.4 113.1,41.5 113.1,41.8 C113.1,41.9 113,42 112.9,42.1 C112.8,42.2 112.7,42.2 112.6,42.2 C112.5,42.2 112.4,42.2 112.4,42.1 C112.3,42.1 112.3,42 112.2,41.9 C112.2,41.8 112.1,41.8 112.1,41.8 C112.1,41.8 112,41.8 112,41.8 C111.8,41.8 111.4,42.2 110.9,43.1 C110.6,43.6 110.4,44.1 110.2,44.7 C110.1,44.9 110.1,45.1 110,45.3 C109.9,45.5 109.9,45.7 109.8,46 L109.7,46.2 L109.3,46.2 L108.9,46.2 L108.9,46.1 Z M106.8,41.2 C106.5,41.2 106.1,41.5 105.6,42 C105.2,42.5 104.9,43 104.7,43.6 L104.8,43.6 C105.5,43.5 106,43.2 106.5,42.9 C106.9,42.5 107.2,42.1 107.2,41.7 C107.2,41.5 107.2,41.4 107.1,41.3 C107,41.3 106.9,41.2 106.8,41.2 Z M105.1,46.2 C104.6,46.2 104.2,46.1 103.9,45.8 C103.6,45.5 103.5,45.1 103.5,44.6 C103.5,44.5 103.5,44.3 103.5,44.2 C103.5,44 103.6,43.9 103.6,43.8 C103.8,43.1 104.2,42.5 104.9,41.9 C105.6,41.3 106.3,41 106.9,41 C107.2,41 107.5,41.1 107.6,41.2 C107.8,41.3 107.8,41.5 107.8,41.8 C107.8,42.3 107.5,42.8 106.9,43.2 C106.3,43.6 105.5,43.9 104.6,44 L104.5,44 C104.5,44.1 104.4,44.2 104.4,44.3 C104.4,44.4 104.4,44.6 104.4,44.7 C104.4,45 104.5,45.3 104.7,45.5 C104.9,45.7 105.2,45.8 105.5,45.8 C105.8,45.8 106,45.7 106.3,45.6 C106.6,45.5 106.9,45.2 107.2,44.9 L107.4,45.1 C107,45.5 106.6,45.8 106.2,46 C105.9,46.1 105.5,46.2 105.1,46.2 Z M100.4,45.2 L101.4,41.5 L100.7,41.5 C100.6,41.5 100.6,41.5 100.6,41.5 C100.6,41.5 100.6,41.5 100.6,41.4 C100.6,41.3 100.6,41.3 100.6,41.3 C100.6,41.3 100.7,41.3 100.8,41.2 C101.2,41 101.5,40.9 101.7,40.7 C101.9,40.5 102.2,40.3 102.4,39.9 C102.4,39.9 102.5,39.8 102.5,39.8 C102.5,39.8 102.6,39.8 102.6,39.8 C102.6,39.8 102.7,39.8 102.7,39.8 C102.7,39.8 102.7,39.9 102.7,39.9 L102.4,41.1 L103.3,41.1 L103.2,41.5 L102.3,41.5 L101.2,45.3 C101.2,45.4 101.2,45.5 101.2,45.6 C101.2,45.7 101.3,45.7 101.3,45.7 C101.4,45.7 101.5,45.6 101.6,45.5 C101.7,45.4 101.9,45.1 102.2,44.8 L102.4,44.9 C102.1,45.4 101.8,45.7 101.5,45.9 C101.2,46.1 101,46.2 100.7,46.2 C100.4,46.2 100.3,46.1 100.2,46 C100.3,45.8 100.3,45.6 100.4,45.2 Z M97.2,45.2 L98.2,41.5 L97.5,41.5 C97.4,41.5 97.4,41.5 97.4,41.5 C97.4,41.5 97.4,41.5 97.4,41.4 C97.4,41.3 97.4,41.3 97.4,41.3 C97.4,41.3 97.5,41.3 97.6,41.2 C98,41 98.3,40.9 98.5,40.7 C98.7,40.5 99,40.3 99.2,39.9 C99.2,39.9 99.3,39.8 99.3,39.8 C99.3,39.8 99.4,39.8 99.4,39.8 C99.4,39.8 99.5,39.8 99.5,39.8 C99.5,39.8 99.5,39.9 99.5,39.9 L99.2,41.1 L100.1,41.1 L100,41.5 L99.1,41.5 L98,45.3 C98,45.4 98,45.5 98,45.6 C98,45.7 98.1,45.7 98.1,45.7 C98.2,45.7 98.3,45.6 98.4,45.5 C98.5,45.4 98.7,45.1 99,44.8 L99.2,44.9 C98.9,45.4 98.6,45.7 98.3,45.9 C98,46.1 97.8,46.2 97.5,46.2 C97.2,46.2 97.1,46.1 97,46 C97.1,45.8 97.1,45.6 97.2,45.2 Z M95.1,41.2 C94.8,41.2 94.4,41.5 93.9,42 C93.5,42.5 93.2,43 93,43.6 L93.1,43.6 C93.8,43.5 94.3,43.2 94.8,42.9 C95.2,42.5 95.5,42.1 95.5,41.7 C95.5,41.5 95.5,41.4 95.4,41.3 C95.4,41.3 95.3,41.2 95.1,41.2 Z M93.5,46.2 C93,46.2 92.6,46.1 92.3,45.8 C92,45.5 91.9,45.1 91.9,44.6 C91.9,44.5 91.9,44.3 91.9,44.2 C91.9,44 92,43.9 92,43.8 C92.2,43.1 92.6,42.5 93.3,41.9 C94,41.3 94.7,41 95.3,41 C95.6,41 95.9,41.1 96,41.2 C96.2,41.3 96.2,41.5 96.2,41.8 C96.2,42.3 95.9,42.8 95.3,43.2 C94.7,43.6 93.9,43.9 93,44 L92.9,44 C92.9,44.1 92.8,44.2 92.8,44.3 C92.8,44.4 92.8,44.6 92.8,44.7 C92.8,45 92.9,45.3 93.1,45.5 C93.3,45.7 93.6,45.8 93.9,45.8 C94.2,45.8 94.4,45.7 94.7,45.6 C95,45.5 95.3,45.2 95.6,44.9 L95.8,45.1 C95.4,45.5 95,45.8 94.6,46 C94.3,46.1 93.9,46.2 93.5,46.2 Z M87.5,46 C88,46 88.5,45.7 89,45.2 C89.5,44.7 89.9,44.1 90,43.5 C90,43.3 90.1,43.2 90.1,43 C90.1,42.8 90.1,42.7 90.1,42.5 C90.1,42.2 90,41.9 89.9,41.8 C89.8,41.6 89.5,41.5 89.3,41.5 C88.9,41.5 88.4,41.8 88,42.4 C87.7,42.9 87.4,43.5 87.1,44.3 L87,44.8 C86.9,45.1 86.9,45.2 86.9,45.4 C86.9,45.5 86.9,45.6 86.9,45.7 L86.9,45.8 C87.1,45.9 87.3,46 87.5,46 Z M87.8,39.2 C87.9,39 87.9,38.8 87.8,38.8 C87.7,38.7 87.4,38.7 87,38.7 L87.1,38.5 C87.5,38.5 87.8,38.4 88,38.4 C88.3,38.4 88.6,38.3 88.9,38.2 L89,38.3 L87.8,42.7 L88.1,42.3 C88.7,41.5 89.3,41.1 89.9,41.1 C90.3,41.1 90.7,41.2 90.9,41.5 C91.2,41.8 91.3,42.1 91.3,42.5 L91.3,42.5 C91.3,42.6 91.3,42.7 91.3,42.9 C91.3,43.1 91.2,43.2 91.2,43.3 C91,44.1 90.5,44.8 89.8,45.4 C89.1,46 88.3,46.3 87.6,46.3 C87.3,46.3 87,46.2 86.7,46.1 C86.4,46 86.2,45.9 86.1,45.7 L87.8,39.2 Z M80.6,41.2 C80.2,41.2 79.8,41.5 79.3,42 C78.9,42.5 78.5,43.2 78.3,43.9 C78.3,44.1 78.2,44.2 78.2,44.4 C78.2,44.5 78.2,44.7 78.2,44.8 C78.2,45.1 78.3,45.3 78.4,45.4 C78.5,45.5 78.7,45.6 78.9,45.6 C79.3,45.6 79.8,45.3 80.2,44.8 C80.6,44.3 81,43.5 81.2,42.7 C81.3,42.2 81.3,41.8 81.2,41.6 C81.1,41.4 80.9,41.2 80.6,41.2 Z M78.4,46.2 C78,46.2 77.8,46.1 77.5,45.8 C77.3,45.6 77.2,45.2 77.2,44.8 C77.2,44.7 77.2,44.6 77.2,44.4 C77.2,44.2 77.3,44.1 77.3,44 C77.5,43.2 78,42.5 78.6,41.8 C79.3,41.2 79.9,40.8 80.5,40.8 C80.9,40.8 81.2,41 81.4,41.3 C81.4,41.4 81.5,41.4 81.5,41.5 L81.7,40.9 L82.5,40.8 L81.3,45 C81.3,45.2 81.2,45.3 81.3,45.4 C81.3,45.5 81.4,45.5 81.5,45.5 C81.6,45.5 81.7,45.4 81.9,45.3 C82,45.2 82.2,45 82.5,44.7 L82.7,44.8 C82.4,45.2 82.1,45.6 81.9,45.8 C81.7,46 81.4,46.1 81.2,46.1 C80.9,46.1 80.8,46 80.7,45.8 C80.6,45.6 80.6,45.3 80.7,44.9 L80.9,44.3 C80.7,44.6 80.5,44.9 80.3,45.1 C79.6,45.9 79,46.2 78.4,46.2 Z M70.1,46.1 L71.2,42.2 C71.3,41.8 71.3,41.6 71.2,41.5 C71.1,41.4 70.9,41.4 70.4,41.5 L70.5,41.3 L71.4,41.1 L72.3,40.9 L72.4,41 L71.8,43.2 C71.8,43.2 71.8,43.2 71.8,43.2 C71.8,43.2 71.8,43.2 71.8,43.2 C71.9,42.9 72.1,42.6 72.2,42.4 C72.8,41.4 73.3,40.9 73.8,40.9 C74,40.9 74.2,41 74.3,41.1 C74.4,41.3 74.4,41.4 74.4,41.7 C74.4,41.8 74.3,41.9 74.2,42 C74.1,42.1 74,42.1 73.9,42.1 C73.8,42.1 73.7,42.1 73.7,42 C73.6,42 73.6,41.9 73.5,41.8 C73.5,41.7 73.4,41.7 73.4,41.7 C73.4,41.7 73.3,41.7 73.3,41.7 C73.1,41.7 72.7,42.1 72.2,43 C71.9,43.5 71.7,44 71.5,44.6 C71.4,44.8 71.4,45 71.3,45.2 C71.2,45.4 71.2,45.6 71.1,45.9 L71,46.1 L70.6,46.1 L70.1,46.1 L70.1,46.1 Z M68,41.2 C67.7,41.2 67.3,41.5 66.8,42 C66.4,42.5 66.1,43 65.9,43.6 L66,43.6 C66.7,43.5 67.2,43.2 67.7,42.9 C68.1,42.5 68.4,42.1 68.4,41.7 C68.4,41.5 68.4,41.4 68.3,41.3 C68.2,41.3 68.1,41.2 68,41.2 Z M66.3,46.2 C65.8,46.2 65.4,46.1 65.1,45.8 C64.8,45.5 64.7,45.1 64.7,44.6 C64.7,44.5 64.7,44.3 64.7,44.2 C64.7,44 64.8,43.9 64.8,43.8 C65,43.1 65.4,42.5 66.1,41.9 C66.8,41.3 67.5,41 68.1,41 C68.4,41 68.7,41.1 68.8,41.2 C69,41.3 69,41.5 69,41.8 C69,42.3 68.7,42.8 68.1,43.2 C67.5,43.6 66.7,43.9 65.8,44 L65.7,44 C65.7,44.1 65.6,44.2 65.6,44.3 C65.6,44.4 65.6,44.6 65.6,44.7 C65.6,45 65.7,45.3 65.9,45.5 C66.1,45.7 66.4,45.8 66.7,45.8 C67,45.8 67.2,45.7 67.5,45.6 C67.8,45.5 68.1,45.2 68.4,44.9 L68.6,45.1 C68.2,45.5 67.8,45.8 67.4,46 C67.1,46.1 66.7,46.2 66.3,46.2 Z M61.6,45.2 L62.6,41.5 L61.9,41.5 C61.8,41.5 61.8,41.5 61.8,41.5 C61.8,41.5 61.8,41.5 61.8,41.4 C61.8,41.3 61.8,41.3 61.8,41.3 C61.8,41.3 61.9,41.3 62,41.2 C62.4,41 62.7,40.9 62.9,40.7 C63.1,40.5 63.4,40.3 63.6,39.9 C63.6,39.9 63.7,39.8 63.7,39.8 C63.7,39.8 63.8,39.8 63.8,39.8 C63.8,39.8 63.9,39.8 63.9,39.8 C63.9,39.8 63.9,39.9 63.9,39.9 L63.6,41.1 L64.5,41.1 L64.4,41.5 L63.5,41.5 L62.4,45.3 C62.4,45.4 62.4,45.5 62.4,45.6 C62.4,45.7 62.5,45.7 62.5,45.7 C62.6,45.7 62.7,45.6 62.8,45.5 C62.9,45.4 63.1,45.1 63.4,44.8 L63.6,44.9 C63.3,45.4 63,45.7 62.7,45.9 C62.4,46.1 62.2,46.2 61.9,46.2 C61.6,46.2 61.5,46.1 61.4,46 C61.5,45.8 61.5,45.6 61.6,45.2 Z M55.5,46.1 L56.6,42.2 C56.7,41.9 56.7,41.7 56.6,41.6 C56.5,41.5 56.3,41.5 55.9,41.5 L56,41.3 L56.9,41.1 L57.8,40.9 L57.9,41 L57,43.5 C57,43.5 57,43.5 57,43.5 L57,43.5 C57.2,43.1 57.5,42.8 57.7,42.4 C58.4,41.5 59,41 59.6,41 C60,41 60.2,41.1 60.3,41.4 C60.4,41.7 60.4,42.1 60.2,42.6 L59.5,45.2 C59.5,45.4 59.4,45.5 59.5,45.6 C59.5,45.7 59.6,45.7 59.7,45.7 C59.8,45.7 59.9,45.6 60.1,45.5 C60.2,45.4 60.4,45.1 60.7,44.8 L60.9,44.9 C60.6,45.4 60.3,45.7 60,45.9 C59.8,46.1 59.5,46.2 59.3,46.2 C59,46.2 58.9,46.1 58.8,45.9 C58.7,45.7 58.7,45.4 58.8,45 L59.5,42.3 C59.6,42 59.6,41.8 59.5,41.7 C59.5,41.6 59.4,41.5 59.2,41.5 C58.8,41.5 58.3,41.9 57.7,42.8 C57.4,43.3 57,43.9 56.8,44.5 C56.7,44.6 56.7,44.8 56.6,45 C56.5,45.2 56.5,45.4 56.4,45.5 L56.2,46.1 L55.8,46.1 L55.5,46.1 L55.5,46.1 Z M48.2,46.1 L48.3,45.9 C48.6,45.9 48.8,45.8 48.9,45.7 C49,45.6 49.1,45.4 49.2,45 L50.6,39.8 C50.7,39.3 50.8,39 50.7,38.9 C50.6,38.8 50.3,38.7 49.8,38.7 L49.9,38.5 L52.2,38.5 L55.7,38.5 L55.5,39.4 L55.3,40.3 L55,40.3 C55.1,39.7 55,39.3 54.8,39.2 C54.6,39 54,39 53,39 L52.5,39 C52.3,39 52.2,39 52.1,39.1 C52,39.2 52,39.3 51.9,39.5 L51.2,42.1 L51.4,42.1 C52.3,42.1 52.8,42 53,41.9 C53.2,41.8 53.5,41.5 53.7,41 L53.9,41 L53.5,42.4 L53.1,43.8 L52.9,43.8 C53,43.2 53,42.9 52.8,42.8 C52.6,42.7 52.2,42.6 51.3,42.6 L51,42.6 L50.3,45.1 C50.2,45.5 50.2,45.7 50.3,45.8 C50.4,45.9 50.6,46 51,46 C52,46 52.7,45.9 53.2,45.7 C53.7,45.5 54.1,45.1 54.6,44.4 L54.8,44.5 L54.4,45.4 L54,46.3 L50,46.3 L48.2,46.3 L48.2,46.1 Z" id="Shape" fill="#444445"></path>
            </g>
        </g>
    </g>
</svg>