<?xml version="1.0" encoding="UTF-8"?>
<svg id="Layer_2" xmlns="http://www.w3.org/2000/svg" viewBox="0 0 241.54 59.47">
  <defs>
    <style>
      .cls-1 {
        fill: #fff;
      }

      .cls-2 {
        fill: #00aa4e;
      }
    </style>
  </defs>
  <g id="Layer_1-2" data-name="Layer_1">
    <g>
      <rect class="cls-2" width="241.54" height="59.47"/>
      <g>
        <path class="cls-1" d="M52.49,28.9c0-5.17-2.11-8.48-6.58-8.48-2.84,0-5.79,1.93-6.7,4.98h-.1v-4.12l-9.45-.05v1.16l2.28.05-.03,24.83h-2.25v1.17l11.25.06v-1.23h-1.41v-15.93c0-4.95,1.02-8.4,3.5-8.35,1.35,0,1.89,1.36,1.89,3.67v20.68h-1.4v1.17h11.26v-1.17h-2.25v-18.43Z"/>
        <path class="cls-1" d="M78.66,11.41h-10.01v1.18h2.47v9.85h-.12c-.55-.95-2.17-2.02-3.81-2.02h-.13c-6.05.05-10.34,7.3-10.37,14.73,0,7.19,4.28,14.19,9.93,14.19h.44c2.64-.15,3.76-1.75,4.44-3.21h.11v2.37h8.74v-1.17h-1.69V11.41ZM68.2,47.63c-.4,0-.75-.05-1.15-.18-2.03-.68-4.06-3.54-4.06-11.94.04-8.49,2.03-12.21,4.06-13.17.34-.14.71-.21,1.05-.21,1.55,0,3.01,1.48,2.97,5.94v10.4h0c0,7.12-.68,9.17-2.88,9.17Z"/>
        <polygon class="cls-1" points="14.29 12.55 16.76 12.55 16.73 47.27 14.24 47.27 14.24 48.45 27.81 48.45 27.81 47.27 25.34 47.27 25.36 12.55 27.85 12.55 27.85 11.37 14.29 11.37 14.29 12.55"/>
        <polygon class="cls-1" points="92.71 21.31 82.87 21.31 82.87 22.47 85.11 22.47 85.11 47.33 82.83 47.33 82.83 48.54 94.97 48.54 94.97 47.37 92.66 47.37 92.71 21.31"/>
        <polygon class="cls-1" points="187.86 11.55 178.01 11.51 178.01 12.69 180.27 12.69 180.27 47.41 177.96 47.41 177.96 48.57 190.1 48.62 190.1 47.46 187.83 47.46 187.86 11.55"/>
        <path class="cls-1" d="M88.9,19.36c2.13,0,3.89-1.96,3.89-4.4s-1.73-4.36-3.89-4.36-3.86,1.95-3.86,4.36,1.74,4.4,3.86,4.4Z"/>
        <path class="cls-1" d="M173.63,21.34h-9.01v1.19h1.44v15.97c0,4.95-1.02,8.34-3.44,8.34-1.38,0-1.94-1.36-1.94-3.67v-21.84h-9.01v1.19h1.44v7.68l-.02,10.76c0,5.12,2.11,8.48,6.57,8.48,2.82,0,5.79-1.99,6.7-4.99h.15v4.13h9.4v-1.18h-2.29l.02-26.07Z"/>
        <path class="cls-1" d="M212.1,25.39c0-1.74,1.43-3.67,4.24-3.67,4.29.04,5.65,3.64,7.12,8.67h1.85l.04-7.68c-2.61-1.3-5.47-2.12-8.34-2.16-6.27,0-10.12,4.04-10.12,9.13,0,10.98,15.18,7.65,15.18,14.68,0,2.77-1.98,3.96-5.2,3.96-5.3,0-5.82-4.97-7.32-9.53h-2.26v8.18c2.87,1.81,6.63,2.52,9.09,2.52,7.77,0,10.91-4.98,10.91-9.8,0-10.44-15.2-7.71-15.2-14.29Z"/>
        <polygon class="cls-1" points="201.99 11.55 192.15 11.55 192.15 12.73 194.4 12.73 194.4 47.46 192.11 47.46 192.11 48.62 204.25 48.62 204.25 47.46 201.95 47.46 201.99 11.55"/>
        <path class="cls-1" d="M119.03,29.21h0c0-6.81-3.42-8.75-10.15-8.75-.41,0-.79,0-1.21.04-2.46.19-4.99.84-7.23,1.95v8.45h1.91c.91-2.64,2.33-8.5,5.32-9.17.22-.06.42-.12.63-.12,2.56,0,3,2,3,4.48v4.66c-.58.92-1.94,1.41-3.63,1.91-4.13,1.23-10.19,2.31-10.19,9.07,0,4.46,3.55,7.67,8.07,7.67.81,0,1.51-.08,2.12-.26,1.96-.52,3.37-1.8,4.34-4.45h.08v3.86h9.19v-1.16h-2.24v-18.17ZM111.24,41.5c0,3.72-1.26,5.58-2.81,5.87-.25.04-.49.04-.75,0-1.61-.2-3.56-1.88-3.53-5.01,0-6.07,1.64-7.35,3.53-8.12,1.21-.45,2.48-.76,3.57-1.82v9.07Z"/>
        <path class="cls-1" d="M138.07,20.5h-.13c-1.63,0-3.26,1.08-3.8,2.02h-.13v-11.03h-7.52s-2.49,0-2.49,0v1.19h2.47v34.73h-1.69v1.18h8.74v-2.37h.1c.69,1.46,1.8,3.05,4.44,3.21h.43c5.66,0,9.93-7,9.93-14.19-.03-7.44-4.31-14.68-10.37-14.73ZM138.07,47.53c-.4.14-.74.18-1.15.18-2.2,0-2.87-2.05-2.87-9.16v-10.4c-.04-4.46,1.41-5.95,2.97-5.95.35,0,.7.08,1.04.22,2.04.97,4.02,4.69,4.07,13.18,0,8.4-2.02,11.26-4.07,11.93Z"/>
      </g>
    </g>
  </g>
</svg>